<?xml version="1.0" encoding="UTF-8"?>
<svg id="_레이어_2" data-name="레이어 2" xmlns="http://www.w3.org/2000/svg" width="182.54" height="111.6" viewBox="0 0 182.54 111.6">
  <g id="_레이어_1-2" data-name="레이어 1">
    <path d="m175.89,54.95h-9.46c.09-8.24,1.39-32.43,1.41-32.69,0-5.45-4.54-9.85-10.11-9.85-.49,0-45.86,1.2-65.61,1.23v-7.77c23.96-.04,52.07-1.91,74.99-5.66,11.36-1.84,17.04,9.02,15.04,15.46-4.12,13.43-6.19,24.52-6.26,39.27ZM90.42,13.64c-19.74-.03-65.22-1.22-65.68-1.23-5.58,0-10.1,4.4-10.1,9.8.02.3,1.45,24.48,1.54,32.77H6.64c-.07-14.77-2.12-25.87-6.24-39.31C-1.61,9.23,4.07-1.64,15.41.21c22.95,3.75,51.03,5.62,75.01,5.66v7.77ZM6.64,56.69h9.54c-.11,8.44-1.52,32.25-1.54,32.5,0,5.45,4.52,9.83,10.09,9.83.02,0,58.05-.96,65.7-1.08v7.78c-23.98.04-52.06,1.92-75.01,5.67-11.34,1.82-17.02-9.02-15.01-15.46,4.11-13.42,6.16-24.52,6.24-39.25Zm91.95,50.97v.63c0,1.38-1.11,2.5-2.49,2.5h-9.67c-1.37,0-2.49-1.12-2.49-2.5v-.63c2.46-.04,4.91-.08,7.33-.08s4.87.04,7.32.08Zm59.14-10.33l-65.61-1.08v-39.58h25.41s0,24.18,0,24.18c0,4.95,4.01,8.99,8.93,8.99h21.07c4.94,0,8.96-4.04,8.96-8.99v-24.2h8.23c.09,8.28,1.39,32.39,1.41,32.64,0,4.42-3.77,8.05-8.41,8.05Zm-2.93-16.48c0,4.02-3.26,7.29-7.26,7.29h-21.07c-3.99,0-7.24-3.27-7.24-7.29v-24.19h35.58s0,24.19,0,24.19Zm-35.58-50.09c0-4,3.25-7.25,7.24-7.25h21.07c4,0,7.26,3.25,7.26,7.25v24.19h-35.58s0-24.19,0-24.19Zm46.91-8.55c-.02.21-1.32,24.46-1.41,32.74h-8.23s0-24.19,0-24.19c0-4.94-4.02-8.95-8.96-8.95h-21.07c-4.93,0-8.93,4.01-8.93,8.95v24.2h-25.41s0-39.63,0-39.63c19.78-.03,65.17-1.21,65.64-1.22,4.62,0,8.38,3.63,8.38,8.11ZM24.72,14.11c.44,0,45.93,1.19,65.7,1.22v39.64h-25.35s0-24.21,0-24.21c0-4.94-4.01-8.95-8.94-8.95h-21.04c-4.93,0-8.94,4.01-8.94,8.95v24.23h-8.28c-.09-8.34-1.52-32.57-1.53-32.82,0-4.42,3.75-8.06,8.38-8.06Zm3.13,16.65c0-4,3.25-7.25,7.24-7.25h21.04c3.99,0,7.24,3.25,7.24,7.25v24.22H27.85s0-24.22,0-24.22Zm35.52,50.09c0,4.02-3.25,7.29-7.24,7.29h-21.04c-3.99,0-7.24-3.27-7.24-7.29v-24.16h35.52s0,24.16,0,24.16Zm27.05-24.18v39.58l-65.72,1.08c-4.61,0-8.36-3.62-8.36-8.09,0-.2,1.42-24.07,1.53-32.55h8.28s0,24.16,0,24.16c0,4.95,4.01,8.99,8.94,8.99h21.04c4.93,0,8.94-4.04,8.94-8.99v-24.17h25.35Zm1.7,41.28l65.59,1.08c5.59,0,10.13-4.39,10.13-9.79-.02-.29-1.31-24.35-1.41-32.59h9.46c.07,14.75,2.14,25.86,6.26,39.29,2,6.43-3.68,17.28-15.04,15.46-22.93-3.75-51.03-5.63-74.99-5.67v-7.78Z" style="fill: #12b5ea; fill-rule: evenodd;"/>
  </g>
</svg>