<?xml version="1.0" encoding="UTF-8"?>
<svg id="_레이어_2" data-name="레이어 2" xmlns="http://www.w3.org/2000/svg" width="146.26" height="112.25" viewBox="0 0 146.26 112.25">
  <g id="_레이어_1-2" data-name="레이어 1">
    <path d="m144.1,20.2v8.68c0,2.07-1.66,3.73-3.71,3.73h-2.41v66.83c-.03,7.06-5.74,12.81-12.75,12.82h-53.51c-7.02,0-12.75-5.75-12.76-12.84v-35.96c-16.79.06-11.54,1.07-30.07,1.07h-.79C11.52,64.52,0,51.16,0,34.67,0,24.33,4.53,15.22,12,9.86c-.01-.1-.03-.2-.03-.31,0-1.64,2.45-2.46,3.97-3.36,5.48-3.22,13.01-3.74,13.01-3.74,3-.09,2.7.96,2.47,2.36,6.32.06,10.04.3,12.66.59-.01-.05-.03-.1-.02-.16.04-.62.12-1.12,2.65-.95,2.67.19,2.54.68,2.49,1.31-.01.2-.16.38-.38.53,2.27.4,4.6.75,10.01.8-.13-.13-.2-.28-.2-.43,0-.62.04-1.13,2.58-1.13,2.41,0,2.58.5,2.58,1.13,0,.14-.07.28-.18.4,5.2-.13,7.52-.55,10.25-.99-.22-.15-.36-.32-.37-.52-.04-.62.02-1.13,2.49-1.3,2.47-.17,2.61.32,2.65.95,0,.09-.02.18-.06.26,2.46-.24,5.75-.42,10.62-.48-.23-1.4-.53-2.45,2.47-2.37,0,0,7.53.52,13.01,3.74,1.53.9,3.97,1.72,3.97,3.36,0,.05-.01.09-.01.13,7.62,5.33,12.25,14.52,12.25,24.98,0,16.49-11.53,29.86-28.11,29.86h-.06c-20.21,0-16.29-.98-30.06-1.07v35.96c.01,5.06,4.08,9.18,9.1,9.18h53.47c4.97-.01,9.04-4.12,9.05-9.18V32.6h-2.46c-2.04,0-3.68-1.65-3.68-3.73v-8.68c-1.24-.34-2.16-1.48-2.16-2.84s.92-2.51,2.16-2.84v-4.1c0-.51.41-.94.92-.94h14.11c.51,0,.93.43.93.94v4.1c1.24.34,2.16,1.47,2.16,2.84s-.92,2.49-2.16,2.83Zm-108.5,4.19h-7.39v-7.35h-6.47v7.35h-7.39v6.43h7.39v7.35h6.47v-7.35h7.39v-6.43Zm8.95,15.98c-3.83,0-6.93,3.08-6.93,6.89s3.1,6.89,6.93,6.89,6.93-3.08,6.93-6.89-3.1-6.89-6.93-6.89Zm9.35-12.31c0-1.37-1.12-2.48-2.5-2.48-1.38,0-2.49,1.11-2.49,2.48h0c0,1.37,1.12,2.48,2.5,2.48,1.38,0,2.49-1.11,2.49-2.48h0Zm50.13.02c0,2.4,2.07,4.35,4.62,4.35,2.55,0,4.62-1.95,4.62-4.35h0c0-2.41-2.07-4.35-4.62-4.35-2.55,0-4.62,1.95-4.62,4.35h0Zm-7.39,13.53c2.55,0,4.62-2.06,4.62-4.59s-2.07-4.59-4.62-4.59-4.62,2.06-4.62,4.59,2.07,4.59,4.62,4.59Zm0-18.37c2.55,0,4.62-2.06,4.62-4.59s-2.07-4.59-4.62-4.59-4.62,2.06-4.62,4.59,2.07,4.59,4.62,4.59Zm-7.39,4.59c0-2.54-2.07-4.59-4.62-4.59s-4.62,2.06-4.62,4.59,2.07,4.59,4.62,4.59,4.62-2.06,4.62-4.59Zm-19.29,19.44c0,3.81,3.11,6.89,6.93,6.89,3.83,0,6.93-3.09,6.92-6.89h0c0-3.82-3.11-6.9-6.93-6.9-3.83,0-6.93,3.09-6.92,6.9h0Zm-2.57-19.19c0,1.37,1.12,2.48,2.5,2.48,1.38,0,2.49-1.11,2.49-2.48h0c0-1.38-1.12-2.49-2.5-2.48-1.38,0-2.49,1.11-2.49,2.48h0Zm-3.7,0c0-1.67-1.37-3.03-3.05-3.03s-3.05,1.36-3.05,3.03,1.37,3.03,3.05,3.03,3.05-1.36,3.05-3.03ZM130.08,0h12.07v7.59h-12.07V0Z" style="fill: #12b5ea; fill-rule: evenodd;"/>
  </g>
</svg>