<?xml version="1.0" encoding="UTF-8"?>
<svg id="_레이어_2" data-name="레이어 2" xmlns="http://www.w3.org/2000/svg" width="153.91" height="112.14" viewBox="0 0 153.91 112.14">
  <g id="_레이어_1-2" data-name="레이어 1">
    <path d="m152.24,99c-2.79,8.64-7.16,13.64-12.11,13.09-8.84-.98-12.12-21.27-13.42-29.45-.59-3.69-1.74-8.08-3.85-12.49,1.84-1.44,4.27-2.69,7.54-3.82,9.27-3.19,16.43-10.92,18.7-20.56,1.7,7.9,3.22,16.04,3.48,19.52.46,6.02,2.95,23.56-.33,33.71Zm-22.37-35.6c-2.53.85-10.08,2.13-11.42,7.45-2.29,9.07-7.59,16.94-16.95,16.94s-16.95-7.58-16.95-16.94c0-6.65,4.4-11.48,9.41-15.18,2.44-1.8,3.14-3.57,3.03-11.29-.03-1.63-.48-3.25-.48-4.95,0-13.96,11.32-25.28,25.29-25.28s25.29,11.32,25.29,25.28c0,11.14-7.21,20.6-17.22,23.97Zm-37.45-.04l-3.23,7.67,3.1,8.88,8.07,3.36,8.74-3.5,3.09-8.21-3.09-8.21-8.07-3.63-8.61,3.63Zm12.48-22.19c-3.15,0-5.7,2.55-5.7,5.69s2.55,5.7,5.7,5.7,5.7-2.55,5.7-5.7-2.55-5.69-5.7-5.69Zm10.38-22.15c-4.97,2.02-8.21,5.71-5.39,8.81,2.76,3.03,2.81.1,8.02-1.68,5.54-1.89,7.36-.14,7.48-4.09.12-4.06-5.48-4.92-10.12-3.03Zm6.31,10.72c-5.1,0-9.23,4.13-9.23,9.23s4.13,9.23,9.23,9.23,9.23-4.13,9.23-9.23-4.13-9.23-9.23-9.23Zm19.97,4.58c-1.21-5.22-4.33-9.01-7.84-6.72-3.43,2.24-.54,2.76.39,8.19.99,5.77-1.04,7.29,2.85,8.04,3.99.77,5.73-4.62,4.6-9.51Zm-34.81,37.39c0,3.35-2.71,6.06-6.06,6.06s-6.06-2.71-6.06-6.06,2.71-6.06,6.06-6.06,6.06,2.71,6.06,6.06Zm14.51-61.03c-15.79,0-28.58,12.79-28.58,28.57,0,1.91.52,3.75.55,5.59.03,2,0,3.62-.07,5-8.22-1.11-15.58-.83-15.58-.83h-1.27s-7.11-.22-15.07.78c-.17-1.31-.27-2.91-.23-4.95.03-1.84.55-3.68.55-5.59,0-15.78-12.8-28.57-28.58-28.57-7.21,0-13.79,2.67-18.82,7.07,3.37-6.13,7.52-12.21,10.1-13.01,4.26-1.31,7.2-1.64,9.82-.98,2.62.65,4.26,3.93,4.26,3.93,0,0,6.55-1.96,11.13-3.6C58.39.91,74.18.2,77.06.04c3.12.17,18.59.91,27.37,4.05,4.58,1.64,11.13,3.6,11.13,3.6,0,0,1.64-3.27,4.26-3.93,2.62-.65,5.57-.33,9.82.98,2.5.77,6.47,6.51,9.79,12.45-4.94-4.07-11.27-6.52-18.17-6.52Zm-44.3,24.35c-2.2,0-3.99,1.78-3.99,3.99s1.79,3.99,3.99,3.99,3.99-1.78,3.99-3.99-1.79-3.99-3.99-3.99ZM77,0c.71,0,.66.01.06.04-.69-.04-.78-.04-.06-.04Zm-44.56,14.16c13.97,0,25.29,11.32,25.29,25.28,0,1.69-.46,3.32-.48,4.95-.11,7.73.59,9.49,3.03,11.29,5.01,3.7,9.41,8.53,9.41,15.18,0,9.36-7.59,16.94-16.95,16.94s-14.65-7.87-16.95-16.94c-1.35-5.32-8.89-6.6-11.42-7.45-10.01-3.37-17.22-12.83-17.22-23.97,0-13.96,11.33-25.28,25.29-25.28Zm10.92,60.89h6.59v6.55h6.56v-6.55h6.53v-6.56h-6.53v-6.56h-6.56v6.56h-6.59v6.56Zm-21.19-25.56l10.09,4.2,10.93-4.37,3.87-10.26-3.87-10.26-10.09-4.54-10.76,4.54-4.04,9.59,3.87,11.1Zm10.34-18c4.13,0,7.48,3.35,7.48,7.48s-3.35,7.48-7.48,7.48-7.48-3.35-7.48-7.48,3.35-7.48,7.48-7.48Zm-8.66,34.85c3.21.84,5.71,1.88,7.65,3.13-2.38,4.64-3.67,9.27-4.3,13.17-1.31,8.18-4.58,28.47-13.42,29.45-4.96.55-9.33-4.45-12.11-13.09-3.27-10.15-.78-27.69-.33-33.71.27-3.59,1.88-12.13,3.64-20.26,2,10.17,9.14,18.73,18.88,21.29Z" style="fill: #12b5ea; fill-rule: evenodd;"/>
  </g>
</svg>