<?xml version="1.0" encoding="UTF-8"?>
<svg id="_레이어_2" data-name="레이어 2" xmlns="http://www.w3.org/2000/svg" width="86.97" height="112.12" viewBox="0 0 86.97 112.12">
  <g id="_레이어_1-2" data-name="레이어 1">
    <path d="m84.91,20.84v8.33c0,1.99-1.58,3.57-3.54,3.57h-2.39v67.69c-.03,6.44-5.21,11.68-11.56,11.69H16.3c-6.37,0-11.56-5.25-11.57-11.71v-6.64h-.19s-.01-.02-.02-.02h-.96v-8.79s-.03-1.71-.03-1.71l.22-.06c2.19-.76,3.96.56,5.13,1.42l.75.53-.02.27h.02l-.3,8.37h-1.25v6.64c0,4.62,3.7,8.37,8.25,8.37h51.09c4.51,0,8.19-3.75,8.21-8.37V32.74h-2.44c-1.94,0-3.52-1.59-3.52-3.57v-8.33c-1.19-.32-2.07-1.42-2.07-2.72s.88-2.41,2.07-2.73v-3.93c0-.49.39-.9.88-.9h13.47c.49,0,.89.41.89.9v3.94c1.18.33,2.06,1.41,2.06,2.73s-.88,2.39-2.06,2.72ZM71.53,1.46h11.52v7.28h-11.52V1.46Zm-21.9,21.11l-5.09,1.57-1.1-.08c-.35-.07-.88-.2-.88-1.27-.02-1.09.01-3.98-1.1-7.61-.16-.38-.32-1.38.28-1.39l4.14-.45c.38,0,.84.07.97.73.13.69,1.39,6.22,2.33,6.96.95.74,1.12.93,1.12,1.2.01.29-.39.21-.68.34Zm-4.44-12.39l-.84.21c-1.73-1.46-3.09-4.77-3.09-5.99l1.26-.18c.28-.05.49.08.69.26,1.37,1.38,2.33,4.14,2.51,4.61.17.48.13.83-.53,1.1Zm-2.07,1.48s.05.13.08.23l-3.21.32c-.86.01-.64,1.33-.41,1.84,1.59,4.79,1.55,8.6,1.57,10.04,0,1.41.77,1.58,1.26,1.68l1.57.1,1.33-.38c0,.12,0,.23,0,.35-.01.35-.46.91-1.09.91s-5.54.98-9.51,4.56c-3.97,3.61-5.55,7.26-5.86,17.81.04,5.94-1.36,19.18-5.69,25.84-4.32,6.65-9.75,8.73-12.87,8.91-.86-.52-2.6-2.18-4.88-2.16.31-6.91,1.59-14.83,2.34-20.34C12.55,25.51,28.65,14.09,39.41,4.39c.14.21.25.4.29.53.13.72.35,3.65,3.42,6.73ZM5.82,60.77c-.76,5.63-2.09,13.8-2.36,20.82-.7-.49-1.5-1.14-1.85-3.19-.45-2.6-3.15-23.55-.36-37.62,2.79-14.07,9.6-21.87,10.32-22.71.71-.83,1.12-1.07,1.81-1.47.67-.41,2.49-2.51,4.65-4.03.6-.78,2.22-2.52,4.7-4.7.53-.68,1.42-1.87,2.54-2.61,1.12-.71,7.85-4.59,8.91-5.09,1.06-.47,1.68.16,2.06.48,0,0,1.13,1.2,2.1,2.36C27.6,12.89,10.75,23.93,5.82,60.77ZM11.3,12.15l6.16-5.23,1.92,2.39-6.16,5.25-1.91-2.41Zm-2.23.21c-.18.13-.33.06-.44-.05-.55-.98-.27-1.67.23-2.25l6.83-5.76c1.08-.88,1.98-.28,2.21-.05.23.24.2.42.09.54l-8.92,7.58Z" style="fill: #12b5ea; fill-rule: evenodd;"/>
  </g>
</svg>