<?xml version="1.0" encoding="UTF-8"?>
<svg id="_레이어_2" data-name="레이어 2" xmlns="http://www.w3.org/2000/svg" width="112.63" height="112.58" viewBox="0 0 112.63 112.58">
  <g id="_레이어_1-2" data-name="레이어 1">
    <path d="m56.32,112.58C25.21,112.58,0,87.38,0,56.29S25.21,0,56.32,0c25.68,0,47.34,17.18,54.12,40.67,1.13,4.73,1.82,9.53,2.18,14.33.01.43.02.86.02,1.3,0,31.09-25.21,56.29-56.32,56.29Zm11.16-15.43c3.09,1.24,4.26.14,8.72-1.99,4.46-2.12,10.03-7,14.77-12.56,3.84-4.51,6.8-13.39,7.01-16.13.09-1.18.01-3.64-4.53-3.64-3.09,0-9.31.09-14.22,3.09-6.23,3.81-8.66,11.88-8.66,11.88,0,0-1.42,3.56-2.82,9.68-1.37,6.04-1.88,9.04-.28,9.68Zm6.11-36.99c-1.02-.77-1.31-.76-2.54.01-1.56,6.74-7.61,11.77-14.83,11.77s-13.28-5.03-14.83-11.78c-1.15-.87-1.52-.85-2.53,0,1.6,8.13,8.77,14.26,17.37,14.26s15.77-6.13,17.37-14.25Zm-58.89,6.3c.21,2.75,3.16,11.62,7.01,16.13,4.74,5.56,10.31,10.44,14.77,12.56,4.47,2.13,5.63,3.23,8.72,1.99,1.61-.64,1.1-3.64-.27-9.68-1.39-6.12-2.82-9.68-2.82-9.68,0,0-2.42-8.07-8.65-11.88-4.91-3-11.13-3.09-14.22-3.09-4.54,0-4.62,2.46-4.53,3.64ZM83.8,23.23s-10.21-9.78-27.52-9.87c-15.77-.09-27.89,10.41-27.89,10.41,0,0-4.73,3.9-3.77,5.69.96,1.79,1.16,1.57,4.72,1.22,4-.39,18.13-1.17,26.64-1.17s19.69.29,24.91.84c5.22.55,5.91.6,7.2-1.03,1.53-1.94-4.29-6.09-4.29-6.09Zm19.37,15.09c0-1.73-1.41-3.14-3.14-3.14H12.07c-1.74,0-3.14,1.41-3.14,3.14v15.7c0,1.73,1.41,3.14,3.14,3.14h87.96c1.73,0,3.14-1.41,3.14-3.14v-15.7Zm-10.19,13.46h1.33v1.33h-1.33v-1.33Zm0-4.15h1.33v1.33h-1.33v-1.33Zm0-4.15h1.33v1.33h-1.33v-1.33Zm0-4.15h1.33v1.33h-1.33v-1.33Zm-6.3,8.98c-1.21,0-2.2-.98-2.2-2.2s.98-2.2,2.2-2.2,2.2.98,2.2,2.2-.98,2.2-2.2,2.2Zm-8.45,0c-1.21,0-2.2-.98-2.2-2.2s.98-2.2,2.2-2.2,2.2.98,2.2,2.2-.98,2.2-2.2,2.2Zm-24.37-6.83c-.87,0-1.57-.7-1.57-1.57s.7-1.57,1.57-1.57c.87,0,1.57.7,1.57,1.57s-.7,1.57-1.57,1.57Zm-15.39,8.48c-2.08,0-3.77-1.69-3.77-3.77s1.69-3.77,3.77-3.77,3.77,1.69,3.77,3.77-1.69,3.77-3.77,3.77Zm-12.57,1.57h-3.14v-3.77h-3.77v-3.14h3.77v-3.77h3.14v3.77h3.77v3.14h-3.77v3.77Zm-12.26,3.14c-1.21,0-2.2-.98-2.2-2.2s.98-2.2,2.2-2.2,2.2.98,2.2,2.2-.98,2.2-2.2,2.2Zm40.22-10.05c.87,0,1.57.7,1.57,1.57s-.7,1.57-1.57,1.57c-.87,0-1.57-.7-1.57-1.57s.7-1.57,1.57-1.57Zm0,6.28c.87,0,1.57.7,1.57,1.57s-.7,1.57-1.57,1.57-1.57-.7-1.57-1.57.7-1.57,1.57-1.57Z" style="fill: #12b5ea; fill-rule: evenodd;"/>
  </g>
</svg>