<?xml version="1.0" encoding="UTF-8"?>
<svg id="_레이어_2" data-name="레이어 2" xmlns="http://www.w3.org/2000/svg" width="26.12" height="111.9" viewBox="0 0 26.12 111.9">
  <g id="_레이어_1-2" data-name="레이어 1">
    <path d="m22.39,111.9H3.73c-2.06,0-3.73-1.67-3.73-3.73V3.73C0,1.67,1.67,0,3.73,0h18.66c2.06,0,3.73,1.67,3.73,3.73v104.44c0,2.06-1.67,3.73-3.73,3.73Zm-9.24-28.48c1.44,0,2.61-1.17,2.61-2.61s-1.17-2.61-2.61-2.61-2.61,1.17-2.61,2.61,1.17,2.61,2.61,2.61Zm-2.61,9.15c0,1.44,1.17,2.61,2.61,2.61s2.61-1.17,2.61-2.61-1.17-2.61-2.61-2.61-2.61,1.17-2.61,2.61Zm4.39-37.74c0-1.03-.84-1.87-1.87-1.87s-1.87.84-1.87,1.87.84,1.87,1.87,1.87,1.87-.84,1.87-1.87Zm-1.87-13.8c2.47,0,4.48-2,4.48-4.48s-2-4.48-4.48-4.48-4.48,2-4.48,4.48,2,4.48,4.48,4.48Zm-7.46,15.67c1.03,0,1.87-.84,1.87-1.87,0-1.03-.84-1.87-1.87-1.87s-1.87.84-1.87,1.87.84,1.87,1.87,1.87ZM5.6,2.98c-1.44,0-2.61,1.17-2.61,2.61s1.17,2.61,2.61,2.61,2.61-1.17,2.61-2.61-1.17-2.61-2.61-2.61Zm13.81,14.92h-4.48v-4.48h-3.73v4.48h-4.48v3.73h4.48v4.48h3.73v-4.48h4.48v-3.73Zm1.12,35.06c-1.03,0-1.87.84-1.87,1.87s.83,1.87,1.87,1.87,1.87-.84,1.87-1.87c0-1.03-.83-1.87-1.87-1.87Z" style="fill: #12b5ea; fill-rule: evenodd;"/>
  </g>
</svg>