<?xml version="1.0" encoding="UTF-8"?>
<svg id="_레이어_2" data-name="레이어 2" xmlns="http://www.w3.org/2000/svg" width="268.12" height="112.3" viewBox="0 0 268.12 112.3">
  <g id="_레이어_1-2" data-name="레이어 1">
    <path d="m6.47,12.26c0-.37.61-.68,1.35-.68s1.35.3,1.35.68-.61.68-1.35.68-1.35-.3-1.35-.68ZM24.23,3.24v2.42h3.63v3.63h-3.63v2.42h-3.63v-2.42h-3.63v-3.63h3.63v-2.42h3.63Zm11.95,4.57c0-1.2,2.03-2.17,4.54-2.17s4.54.97,4.54,2.17-2.03,2.17-4.54,2.17-4.54-.97-4.54-2.17Zm25.79,5.52c-.98,0-1.77-.4-1.77-.88s.79-.89,1.77-.89,1.77.4,1.77.89-.79.88-1.77.88Zm0-6.16c.75,0,1.35.3,1.35.68s-.61.68-1.35.68-1.35-.3-1.35-.68.61-.68,1.35-.68Zm0-3.81c.98,0,1.77.4,1.77.88s-.79.88-1.77.88-1.77-.4-1.77-.88.79-.88,1.77-.88Zm28.86,4.83c0-.84,1.42-1.52,3.18-1.52s3.18.68,3.18,1.52-1.42,1.52-3.18,1.52-3.18-.68-3.18-1.52Zm11.01,0c0-.84,1.42-1.52,3.18-1.52s3.18.68,3.18,1.52-1.42,1.52-3.18,1.52-3.18-.68-3.18-1.52Zm115.4,93.77c-6.02-.15-8.63-1.44-11.54-4-2.15-1.43-10.69-9.97-10.69-9.97-4.2-4.28-14.73-15.75-24.64-26-.88-.91,9.99-.59,10.83-.06.83.53,6.39,6.78,11.39,12.1,4.99,5.32,11.26,11.4,13.93,13.52,2.67,2.11,6.75,4.38,9.08,5.04,2.33.66,9.18.65,9.18.65,0,0,6.83-.05,7.87-.05,1.23,0,2.22,2.03,6.19,8.6-7.93-.15-18.87.31-21.59.17Zm48.66-.27c-.48.21-5.66.14-19.42.14,0,0-2.02.41-3.6-1.94-5.57-8.31-18.77-30.79-24.23-38.94-1.51-2.25-3.48-2.04-3.48-2.04h-34.7s-13.14.58-13.85-.16c-1.86-1.93-3.72-3.85-5.53-5.72-15.18-16.08-21.77-22.47-26.31-26.83.33-.49,1.97-.41,3.12-.41,5.42,0,8.26.81,8.26-.43l-.21-3.99h-14.3c-2.54-.16-2.49-.95-2.49-1.55s-.24-1.24,2.53-1.24l13.39.03-.04-5.61-18.47-.05-.06,4.25s-.45.82-.93.83c-.51,0-1.05-.81-1.05-.81,0,0,.01-8.75.01-13.06,0-.82-.17-1.41-.29-1.64-.72-.66-1.98-.51-1.98-.51H6.22l.1,3.66c.06,2.24-.75,4.29-2.1,5.27-1.34.98-1.9,2.39-1.43,3.6l.76,1.99h112.24l6.25,3.11,6.25,3.11,28.81,29.87c15.84,16.43,32.92,34.04,37.95,39.14,0,0,4.27,5.68,9.15,9.27,4.88,3.59,10.88,3.87,13.03,3.87h50.88l-.12,2.59c-.27,3.07-5.66,4.79-9.91,4.79-3.46,0-51.63-.09-58.91-.09-4.78,0-10.93-2.1-14.88-4.37-3.59-2.07-17.58-14.82-33.76-30.76-15.19-14.98-31.26-29.82-35.69-32.98-4.98-3.54-9.97-7.22-14.3-8.35,0,0-5.28-1.22-7.8-1.22s-88.2.05-90.41.05C1.1,34.59,0,33.59,0,32.2,0,35.81-.08,1.33.41.55.84-.14,2.56.06,2.56.06l113.45-.06s2.68.13,6.43.13c1.79.1,4.36,1.9,6.66,5.62,2.31,3.72,5.48,4.74,5.48,4.74,0,0,10.48-.37,11.52.3.76.49,2.03,1.17,2.02,2.46,0,1.68.19,4.72.19,4.72,0,0,3.45.11,4.87.6,2.65.92,6.62,3,8.7,5.01,2.08,2.01,3.86,6.04,4.6,8.45.74,2.41,1.05,4.34.68,4.93-.37.59-1.34.57-2.03.34-.69-.23-1.31-3.42-2.39-6.31-1.08-2.9-1.83-4.25-3.74-6.06-1.51-1.37-4.57-2.91-5.97-3.56-1.14-.52-4.86-.36-4.86-.36l-.02,5.35s4.55,4.42,6.27,6.37l6.9,7.81h14.27s13.74,0,13.74,0l.82-3.64c.61-2.06,2.47-3.28,2.47-3.28,0,0-1.08-2.86-1.08-4.51,0-1.98,1.3-4.14,4.13-5,.53-6.36,3.39-7.37,5-8.43l2.94-1.27,3.96-.27c3.5.81,7.84,1.8,8.55,1.11.1-1.54,1.38-1.92,2.96-1.92s4.97,1.35,6.25,2.04c1.28.69,3.1,2.73,4.04,4.54.94,1.81,5.85,7.55,10.91,12.75,16.4,18.9,18.09,27.96,21.43,36.91,1.4,4.2,2.72,10.19,2.93,13.32.08,1.17-1.19,2.57-2.26,3.56,1.63,2.28,2.73,6.01,3.35,8.17,2.31,6.95,1.01,6.71.15,7.08ZM126.61,7.95l.13,2.38h1.85l-1.98-2.38Zm65.22,31.47l-.26,3.97c0,1.06,1.39,2.31,2.44,2.31s2.31-1.12,2.31-2.18l-.4-5.41c0-1.06-.86-2.18-1.91-2.18-1.33,0-2.05,2.04-2.18,3.49Zm2.93-12.61c-.96,0-1.75,1.18-1.75,2.62s.79,2.62,1.75,2.62,1.75-1.18,1.75-2.62-.79-2.62-1.75-2.62Zm1.97,7.01s1.67,2.76,1.74,7.55l-.55,6.84s23.56-.79,28.83,1.3c1.73,1.14,6.03,5.76,8.1,8.82,2.06,3.06,3.75,5.83,3.75,6.15s1.02,2.07,2.26,3.87c1.24,1.8,3.95,6,6.02,9.33,2.07,3.33,3.98,6.25,4.69,7.08.71.83,2.83,1.63,4.86,1.63s3.99-.07,3.77-.6c-.22-.53-3.95-6.91-8.28-14.19-4.78-8.03-10.7-16.02-15.08-20.33-4.97-4.9-10.6-8.8-18.17-12.56-6.03-3-12.93-7.35-15.33-9.65l-5.42-5.51.55,3.64c.08,3.46-1.75,6.63-1.75,6.63Zm30.21-14.84c-1.25-1.19-3.61-3.19-5.11-3.64-1.98-.59-3.88-.11-4.46,1.4-.53,1.38,1.17,3.36,3,4.84,1.52,1.23,3.76,2.23,4.97,2.23s2.59-.6,3.04-1.33c.45-.73-.2-2.31-1.44-3.5Zm35.89,62.47c0-.93-1.13-5.42-2.52-9.99-1.39-4.56-3.01-9.86-5.07-14.19-2.06-4.33-7.54-13.12-10.73-17.11-3.19-3.99-7.13-8.49-8.75-9.99-1.62-1.5-3.65-3.8-4.78-4.97-.94,1.32-2.19,2.86-2.94,3.61-.81.81-2.49,1.18-5.35.85-2.26-.42-5.04-1.48-6.49-2.83-1.45-1.35-3.69-4.53-3.69-6.09s.46-2.12.86-3.06c-2.2-1.04-5.3-1.4-6.86-1.4s-3.69.6-4.74,1c-1.05.4-1.92,1.98-1.92,3.49,0,1.67,1.88,4.45,4.78,7.08,2.63,2.38,8.86,6.34,13.85,8.8,4.99,2.47,11.66,6.44,14.83,8.83,3.17,2.39,8.08,7.35,10.93,11.01,5.71,7.35,15.22,24.27,14.18,22.69,1.43,2.16,3,3.93,3.5,3.94.5,0,.91-.75.91-1.68ZM89.38,44.09c1.36,3.83,4.65,13.26,7.31,20.97,2.66,7.7,4.94,16.42,5.06,19.37.12,2.95.17,6.59.1,8.09-.06,1.5-1.2,3.81-2.53,5.14-1.67,1.67-4.01,2.41-7.57,2.4-2.83-.01-7.33-1.03-9.99-2.26-2.66-1.23-6.08-3.58-7.59-5.22-1.51-1.64-4.7-7.57-7.09-13.17-2.39-5.6-5.37-13.35-6.62-17.21-1.26-3.86-3.96-9.45-6-12.42-2.51-3.64-6.7-7.26-11-8.95-7.29-1.56-10.54-3.69-10.54-3.69h54s2.47,6.98,2.47,6.98Zm-45.89-.36c2.06,1.06,3.75,2.41,3.75,2.99s-.86,1.38-1.92,1.78c-1.05.4-2.67,1.3-3.35.86-.87-.55-.66-1.69-1.2-3.83-.8-.97-3.03-2.64-2.74-2.94.3-.3,3.4.07,5.46,1.14Z" style="fill: #12b5ea; fill-rule: evenodd;"/>
  </g>
</svg>